<?xml version="1.0" encoding="UTF-8"?>
<svg width="18px" height="15px" viewBox="0 0 18 15" version="1.1" xmlns="http://www.w3.org/2000/svg" xmlns:xlink="http://www.w3.org/1999/xlink">
    <title>mail</title>
    <defs>
        <path d="M21.5,7 C22.3284271,7 23,7.67157288 23,8.5 L23,20.5 C23,21.3284271 22.3284271,22 21.5,22 L6.5,22 C5.67157288,22 5,21.3284271 5,20.5 L5,8.5 C5,7.67157288 5.67157288,7 6.5,7 L21.5,7 Z M21.5,9.439 L14.1152149,15.8176173 C13.823385,16.0696522 13.3879967,16.0593304 13.1084379,15.7937496 L6.5,9.515 L6.5,20.5 L21.5,20.5 L21.5,9.439 Z M20.292,8.5 L7.608,8.5 L13.6489844,14.2383016 L20.292,8.5 Z" id="path-1"></path>
    </defs>
    <g id="Symbols" stroke="none" stroke-width="1" fill="none" fill-rule="evenodd">
        <g id="symbol/mini/message" transform="translate(-5.000000, -7.000000)">
            <mask id="mask-2" fill="white">
                <use xlink:href="#path-1"></use>
            </mask>
            <use id="mail" fill="#5627FF" fill-rule="nonzero" xlink:href="#path-1"></use>
        </g>
    </g>
</svg>