<?xml version="1.0" encoding="UTF-8"?>
<svg width="12px" height="16px" viewBox="0 0 12 16" version="1.1" xmlns="http://www.w3.org/2000/svg" xmlns:xlink="http://www.w3.org/1999/xlink">
    <title>Combined Shape</title>
    <g id="Symbols" stroke="none" stroke-width="1" fill="none" fill-rule="evenodd">
        <g id="footer" transform="translate(-836.000000, -76.000000)" fill="#FFFFFF" fill-rule="nonzero">
            <path d="M847.717863,88.9704142 C847.873683,88.9704142 848,89.0967314 848,89.2525516 L848,91.7178626 C848,91.8736828 847.873683,92 847.717863,92 L836.282137,92 C836.126317,92 836,91.8736828 836,91.7178626 L836,89.2525516 C836,89.0967314 836.126317,88.9704142 836.282137,88.9704142 L847.717863,88.9704142 Z M838.70495,76 C838.815519,76 838.915897,76.0645865 838.961719,76.1652135 L838.961719,76.1652135 L842,82.8373873 L845.038281,76.1652135 C845.084103,76.0645865 845.184481,76 845.29505,76 L845.29505,76 L847.717863,76 C847.873683,76 848,76.1263172 848,76.2821374 L848,76.2821374 L848,87.362833 C848,87.5186532 847.873683,87.6449704 847.717863,87.6449704 L847.717863,87.6449704 L845.395651,87.6449704 C845.239831,87.6449704 845.113514,87.5186532 845.113514,87.362833 L845.113514,87.362833 L845.113514,82.8373873 L843.296287,87.4659415 C843.253885,87.5739405 843.14969,87.6449704 843.033665,87.6449704 L843.033665,87.6449704 L840.966751,87.6449704 C840.850519,87.6449704 840.746182,87.5736902 840.703922,87.4654131 L840.703922,87.4654131 L838.886486,82.8088177 L838.886486,87.362833 C838.886486,87.5186532 838.760169,87.6449704 838.604349,87.6449704 L838.604349,87.6449704 L836.282137,87.6449704 C836.126317,87.6449704 836,87.5186532 836,87.362833 L836,87.362833 L836,76.2821374 C836,76.1263172 836.126317,76 836.282137,76 L836.282137,76 Z M843.175869,76 C843.21573,76 843.255139,76.0084465 843.291498,76.0247829 C843.433631,76.0886433 843.497084,76.2556339 843.433223,76.3977669 L843.433223,76.3977669 L842.167802,79.2141928 C842.139499,79.277188 842.089072,79.3276141 842.026077,79.3559179 C841.883944,79.4197782 841.716954,79.3563258 841.653093,79.2141928 L841.653093,79.2141928 L840.387672,76.3977669 C840.371336,76.3614072 840.362889,76.3219985 840.362889,76.2821374 C840.362889,76.1263172 840.489206,76 840.645027,76 L840.645027,76 Z" id="Combined-Shape"></path>
        </g>
    </g>
</svg>