<svg xmlns="http://www.w3.org/2000/svg" width="12" height="16" xmlns:v="https://vecta.io/nano"><path d="M11.718 12.97c.156 0 .282.126.282.282v2.465c0 .156-.126.282-.282.282H.282C.126 16 0 15.874 0 15.718v-2.465c0-.156.126-.282.282-.282h11.436zM2.705 0c.11 0 .21.065.257.165h0L6 6.837 9.038.165c.046-.1.146-.165.257-.165h2.423c.156 0 .282.126.282.282h0v11.08c0 .156-.126.282-.282.282h0-2.322c-.156 0-.282-.126-.282-.282h0V6.837l-1.817 4.63c-.042.108-.147.18-.263.18h0-2.067c-.116 0-.22-.07-.263-.18h0L2.886 6.81v4.554c0 .156-.126.282-.282.282h0H.282c-.156 0-.282-.126-.282-.282h0V.282C0 .126.126 0 .282 0h0zm4.47 0c.04 0 .08.008.116.025.142.064.206.23.142.373h0L6.168 3.214c-.028.063-.08.113-.142.142-.142.064-.31 0-.373-.142h0L4.388.398C4.37.36 4.363.322 4.363.282c0-.156.126-.282.282-.282h0z" fill="#fff"/></svg>