<?xml version="1.0" encoding="UTF-8"?>
<svg width="15px" height="18px" viewBox="0 0 15 18" version="1.1" xmlns="http://www.w3.org/2000/svg" xmlns:xlink="http://www.w3.org/1999/xlink">
    <title>notif</title>
    <defs>
        <path d="M13.5012611,5 C16.8404746,5 19.5012611,7.66078644 19.5012611,11 L19.5012611,14.75 C19.5012611,15.9589197 19.7620828,17.1326175 20.1976186,18.221457 C20.3501966,18.602902 20.5132626,18.9453407 20.6753077,19.2424234 C20.7697638,19.4155929 20.8403205,19.5315074 20.8752988,19.5839749 C21.2075761,20.0823909 20.8502826,20.75 20.2512611,20.75 L16.4112776,20.7506107 C16.0882559,22.0620988 14.9301456,23 13.5012611,23 C12.0723765,23 10.9142663,22.0620988 10.5912446,20.7506107 L6.75126106,20.75 C6.15223953,20.75 5.79494598,20.0823909 6.12722334,19.5839749 C6.16220161,19.5315074 6.23275829,19.4155929 6.32721438,19.2424234 C6.48925948,18.9453407 6.65232556,18.602902 6.80490355,18.221457 C7.24043934,17.1326175 7.50126106,15.9589197 7.50126106,14.75 L7.50126106,11 C7.50126106,7.66078644 10.1620475,5 13.5012611,5 Z M14.8149564,20.7512496 L12.1875657,20.7512496 C12.4377108,21.2072741 12.9187516,21.5 13.5012611,21.5 C14.0837705,21.5 14.5648114,21.2072741 14.8149564,20.7512496 Z M13.5012611,6.5 C10.9904746,6.5 9.00126106,8.48921356 9.00126106,11 L9.00126106,14.75 C9.00126106,16.1660803 8.69958279,17.5236325 8.19761858,18.778543 C8.13089117,18.9453615 8.06399171,19.1026704 7.99793966,19.25 L19.0045825,19.25 C18.9385304,19.1026704 18.871631,18.9453615 18.8049035,18.778543 C18.3029393,17.5236325 18.0012611,16.1660803 18.0012611,14.75 L18.0012611,11 C18.0012611,8.48921356 16.0120475,6.5 13.5012611,6.5 Z" id="path-1"></path>
    </defs>
    <g id="Symbols" stroke="none" stroke-width="1" fill="none" fill-rule="evenodd">
        <g id="symbol/mini/bell" transform="translate(-6.000000, -5.000000)">
            <mask id="mask-2" fill="white">
                <use xlink:href="#path-1"></use>
            </mask>
            <use id="notif" fill="#5627FF" fill-rule="nonzero" xlink:href="#path-1"></use>
        </g>
    </g>
</svg>