<?xml version="1.0" encoding="UTF-8"?>
<svg width="18px" height="18px" viewBox="0 0 18 18" version="1.1" xmlns="http://www.w3.org/2000/svg" xmlns:xlink="http://www.w3.org/1999/xlink">
    <title>search</title>
    <defs>
        <path d="M12.8131868,5 C17.1282907,5 20.6263736,8.49808289 20.6263736,12.8131868 C20.6263736,14.7213269 19.9423548,16.4697058 18.8061439,17.8264966 L22.7972278,21.8181568 C23.0675907,22.0885198 23.0675907,22.5268648 22.7972278,22.7972278 C22.5268648,23.0675907 22.0885198,23.0675907 21.8181568,22.7972278 L17.8264966,18.8061439 C16.4697058,19.9423548 14.7213269,20.6263736 12.8131868,20.6263736 C8.49808289,20.6263736 5,17.1282907 5,12.8131868 C5,8.49808289 8.49808289,5 12.8131868,5 Z M12.8131868,6.38461538 C9.26278485,6.38461538 6.38461538,9.26278485 6.38461538,12.8131868 C6.38461538,16.3635888 9.26278485,19.2417582 12.8131868,19.2417582 C16.3635888,19.2417582 19.2417582,16.3635888 19.2417582,12.8131868 C19.2417582,9.26278485 16.3635888,6.38461538 12.8131868,6.38461538 Z" id="path-1"></path>
    </defs>
    <g id="Symbols" stroke="none" stroke-width="1" fill="none" fill-rule="evenodd">
        <g id="symbol/mini/search" transform="translate(-5.000000, -5.000000)">
            <mask id="mask-2" fill="white">
                <use xlink:href="#path-1"></use>
            </mask>
            <use id="search" fill="#5627FF" fill-rule="nonzero" xlink:href="#path-1"></use>
        </g>
    </g>
</svg>