<svg xmlns="http://www.w3.org/2000/svg" xmlns:xlink="http://www.w3.org/1999/xlink" width="24" height="24" xmlns:v="https://vecta.io/nano"><defs><path d="M24 18v5.6a.4.4 0 0 1-.4.4h0-7.2v-6H24zm-8.4 0v6H8.4v-6h7.2zm-8 0v6H.4a.4.4 0 0 1-.4-.4h0V18h7.6zm8-6v5.2H8.4V12h7.2zm-8 0v5.2H0V12h7.6zM24 12v5.2h-7.6V12H24zm0-6v5.2h-7.6V6H24zM7.6 6v5.2H0V6h7.6zm8 0v5.2H8.4V6h7.2zm8-6a.4.4 0 0 1 .4.4h0v4.8H0V.4A.4.4 0 0 1 .4 0h0z" id="A"/></defs><g fill-rule="evenodd"><mask id="B" fill="#fff"><use xlink:href="#A"/></mask><use fill="#000" xlink:href="#A"/><g mask="url(#B)" fill="#dbe5ff"><path d="M0 0h24v24H0z"/></g></g></svg>